<mxfile host="app.diagrams.net" modified="2024-04-04T15:46:12.218Z" agent="Mozilla/5.0 (Windows NT 10.0; Win64; x64; rv:124.0) Gecko/20100101 Firefox/124.0" etag="m6UH-gG3OrbqYE7gKcJ2" version="24.1.0" type="device">
  <diagram name="Page-1" id="jsfqb7eXCodoYatvYpxr">
    <mxGraphModel dx="1306" dy="506" grid="1" gridSize="10" guides="1" tooltips="1" connect="1" arrows="1" fold="1" page="1" pageScale="1" pageWidth="850" pageHeight="1100" math="0" shadow="0">
      <root>
        <mxCell id="0" />
        <mxCell id="1" parent="0" />
        <mxCell id="oiICMHyo7Mnsv7lye1vL-1" value="" style="rounded=0;whiteSpace=wrap;html=1;" parent="1" vertex="1">
          <mxGeometry y="100" width="880" height="420" as="geometry" />
        </mxCell>
        <mxCell id="oCsSUEnGBxuVYdjNmp3u-1" value="" style="rounded=0;whiteSpace=wrap;html=1;" parent="1" vertex="1">
          <mxGeometry x="405" y="120" width="445" height="290" as="geometry" />
        </mxCell>
        <mxCell id="oCsSUEnGBxuVYdjNmp3u-6" value="Kubernetes cluster" style="text;html=1;align=center;verticalAlign=middle;whiteSpace=wrap;rounded=0;" parent="1" vertex="1">
          <mxGeometry x="562.5" y="410" width="125" height="30" as="geometry" />
        </mxCell>
        <mxCell id="oCsSUEnGBxuVYdjNmp3u-12" value="" style="shape=ext;double=1;rounded=1;whiteSpace=wrap;html=1;direction=south;" parent="1" vertex="1">
          <mxGeometry x="710" y="135" width="125" height="160" as="geometry" />
        </mxCell>
        <mxCell id="oCsSUEnGBxuVYdjNmp3u-13" value="Node" style="text;html=1;align=center;verticalAlign=middle;whiteSpace=wrap;rounded=0;" parent="1" vertex="1">
          <mxGeometry x="710" y="265" width="60" height="30" as="geometry" />
        </mxCell>
        <mxCell id="mDvCeRsgcDXoX6YrQQuD-2" value="" style="whiteSpace=wrap;html=1;aspect=fixed;" vertex="1" parent="1">
          <mxGeometry x="30" y="120" width="170" height="170" as="geometry" />
        </mxCell>
        <mxCell id="mDvCeRsgcDXoX6YrQQuD-3" value="" style="image;points=[];aspect=fixed;html=1;align=center;shadow=0;dashed=0;image=img/lib/allied_telesis/computer_and_terminals/Personal_Computer.svg;" vertex="1" parent="1">
          <mxGeometry x="40" y="169.1" width="45.6" height="61.800000000000004" as="geometry" />
        </mxCell>
        <mxCell id="mDvCeRsgcDXoX6YrQQuD-8" style="edgeStyle=orthogonalEdgeStyle;rounded=0;orthogonalLoop=1;jettySize=auto;html=1;entryX=0;entryY=0.5;entryDx=0;entryDy=0;" edge="1" parent="1" source="mDvCeRsgcDXoX6YrQQuD-5" target="oCsSUEnGBxuVYdjNmp3u-1">
          <mxGeometry relative="1" as="geometry" />
        </mxCell>
        <mxCell id="mDvCeRsgcDXoX6YrQQuD-5" value="&lt;div&gt;kubectl&lt;/div&gt;" style="rounded=0;whiteSpace=wrap;html=1;" vertex="1" parent="1">
          <mxGeometry x="100" y="160" width="90" height="40" as="geometry" />
        </mxCell>
        <mxCell id="mDvCeRsgcDXoX6YrQQuD-7" value="&lt;div&gt;config&lt;/div&gt;" style="rounded=0;whiteSpace=wrap;html=1;" vertex="1" parent="1">
          <mxGeometry x="100" y="210" width="90" height="40" as="geometry" />
        </mxCell>
        <mxCell id="mDvCeRsgcDXoX6YrQQuD-9" value="Local machine" style="text;html=1;align=center;verticalAlign=middle;whiteSpace=wrap;rounded=0;" vertex="1" parent="1">
          <mxGeometry x="45" y="290" width="140" height="30" as="geometry" />
        </mxCell>
        <mxCell id="mDvCeRsgcDXoX6YrQQuD-31" value="" style="shape=ext;double=1;rounded=1;whiteSpace=wrap;html=1;direction=south;" vertex="1" parent="1">
          <mxGeometry x="565" y="135" width="125" height="160" as="geometry" />
        </mxCell>
        <mxCell id="mDvCeRsgcDXoX6YrQQuD-32" value="Node" style="text;html=1;align=center;verticalAlign=middle;whiteSpace=wrap;rounded=0;" vertex="1" parent="1">
          <mxGeometry x="565" y="265" width="60" height="30" as="geometry" />
        </mxCell>
        <mxCell id="mDvCeRsgcDXoX6YrQQuD-33" value="" style="rounded=0;whiteSpace=wrap;html=1;" vertex="1" parent="1">
          <mxGeometry x="577.5" y="150" width="100" height="120" as="geometry" />
        </mxCell>
        <mxCell id="mDvCeRsgcDXoX6YrQQuD-37" style="edgeStyle=orthogonalEdgeStyle;rounded=0;orthogonalLoop=1;jettySize=auto;html=1;entryX=0.5;entryY=0;entryDx=0;entryDy=0;" edge="1" parent="1" source="mDvCeRsgcDXoX6YrQQuD-34" target="mDvCeRsgcDXoX6YrQQuD-36">
          <mxGeometry relative="1" as="geometry" />
        </mxCell>
        <mxCell id="mDvCeRsgcDXoX6YrQQuD-34" value="&lt;div&gt;&lt;font style=&quot;font-size: 10px;&quot;&gt;Container(s) &lt;br&gt;&lt;/font&gt;&lt;/div&gt;&lt;div&gt;&lt;font style=&quot;font-size: 10px;&quot;&gt;(game server)&lt;/font&gt;&lt;/div&gt;" style="rounded=0;whiteSpace=wrap;html=1;fillColor=#f8cecc;strokeColor=#b85450;" vertex="1" parent="1">
          <mxGeometry x="587.5" y="180" width="80" height="30" as="geometry" />
        </mxCell>
        <mxCell id="mDvCeRsgcDXoX6YrQQuD-35" value="&lt;font style=&quot;font-size: 10px;&quot;&gt;Pod&lt;/font&gt;" style="text;html=1;align=center;verticalAlign=middle;whiteSpace=wrap;rounded=0;" vertex="1" parent="1">
          <mxGeometry x="597.5" y="150" width="60" height="30" as="geometry" />
        </mxCell>
        <mxCell id="mDvCeRsgcDXoX6YrQQuD-40" style="edgeStyle=orthogonalEdgeStyle;rounded=0;orthogonalLoop=1;jettySize=auto;html=1;entryX=0.5;entryY=1;entryDx=0;entryDy=0;" edge="1" parent="1" source="mDvCeRsgcDXoX6YrQQuD-36" target="mDvCeRsgcDXoX6YrQQuD-34">
          <mxGeometry relative="1" as="geometry" />
        </mxCell>
        <mxCell id="mDvCeRsgcDXoX6YrQQuD-36" value="" style="shape=datastore;whiteSpace=wrap;html=1;" vertex="1" parent="1">
          <mxGeometry x="620" y="245" width="15" height="20" as="geometry" />
        </mxCell>
        <mxCell id="mDvCeRsgcDXoX6YrQQuD-41" value="" style="shape=ext;double=1;rounded=1;whiteSpace=wrap;html=1;direction=south;" vertex="1" parent="1">
          <mxGeometry x="425" y="135" width="125" height="160" as="geometry" />
        </mxCell>
        <mxCell id="mDvCeRsgcDXoX6YrQQuD-42" value="Node" style="text;html=1;align=center;verticalAlign=middle;whiteSpace=wrap;rounded=0;" vertex="1" parent="1">
          <mxGeometry x="425" y="265" width="60" height="30" as="geometry" />
        </mxCell>
        <mxCell id="mDvCeRsgcDXoX6YrQQuD-43" value="" style="rounded=0;whiteSpace=wrap;html=1;" vertex="1" parent="1">
          <mxGeometry x="437.5" y="150" width="100" height="120" as="geometry" />
        </mxCell>
        <mxCell id="mDvCeRsgcDXoX6YrQQuD-44" style="edgeStyle=orthogonalEdgeStyle;rounded=0;orthogonalLoop=1;jettySize=auto;html=1;entryX=0.5;entryY=0;entryDx=0;entryDy=0;" edge="1" parent="1" source="mDvCeRsgcDXoX6YrQQuD-45" target="mDvCeRsgcDXoX6YrQQuD-48">
          <mxGeometry relative="1" as="geometry" />
        </mxCell>
        <mxCell id="mDvCeRsgcDXoX6YrQQuD-45" value="&lt;div&gt;&lt;font style=&quot;font-size: 10px;&quot;&gt;Container(s) &lt;br&gt;&lt;/font&gt;&lt;/div&gt;&lt;div&gt;&lt;font style=&quot;font-size: 10px;&quot;&gt;(blog website)&lt;/font&gt;&lt;/div&gt;" style="rounded=0;whiteSpace=wrap;html=1;fillColor=#f8cecc;strokeColor=#b85450;" vertex="1" parent="1">
          <mxGeometry x="447.5" y="180" width="80" height="30" as="geometry" />
        </mxCell>
        <mxCell id="mDvCeRsgcDXoX6YrQQuD-46" value="&lt;font style=&quot;font-size: 10px;&quot;&gt;Pod&lt;/font&gt;" style="text;html=1;align=center;verticalAlign=middle;whiteSpace=wrap;rounded=0;" vertex="1" parent="1">
          <mxGeometry x="457.5" y="150" width="60" height="30" as="geometry" />
        </mxCell>
        <mxCell id="mDvCeRsgcDXoX6YrQQuD-47" style="edgeStyle=orthogonalEdgeStyle;rounded=0;orthogonalLoop=1;jettySize=auto;html=1;entryX=0.5;entryY=1;entryDx=0;entryDy=0;" edge="1" parent="1" source="mDvCeRsgcDXoX6YrQQuD-48" target="mDvCeRsgcDXoX6YrQQuD-45">
          <mxGeometry relative="1" as="geometry" />
        </mxCell>
        <mxCell id="mDvCeRsgcDXoX6YrQQuD-48" value="" style="shape=datastore;whiteSpace=wrap;html=1;" vertex="1" parent="1">
          <mxGeometry x="480" y="245" width="15" height="20" as="geometry" />
        </mxCell>
        <mxCell id="mDvCeRsgcDXoX6YrQQuD-49" value="&lt;font style=&quot;font-size: 8px;&quot;&gt;Volume&lt;/font&gt;" style="text;html=1;align=center;verticalAlign=middle;whiteSpace=wrap;rounded=0;" vertex="1" parent="1">
          <mxGeometry x="485" y="240" width="60" height="30" as="geometry" />
        </mxCell>
        <mxCell id="mDvCeRsgcDXoX6YrQQuD-51" value="&lt;font style=&quot;font-size: 8px;&quot;&gt;Volume&lt;/font&gt;" style="text;html=1;align=center;verticalAlign=middle;whiteSpace=wrap;rounded=0;" vertex="1" parent="1">
          <mxGeometry x="627.5" y="240" width="60" height="30" as="geometry" />
        </mxCell>
        <mxCell id="mDvCeRsgcDXoX6YrQQuD-57" style="edgeStyle=orthogonalEdgeStyle;rounded=0;orthogonalLoop=1;jettySize=auto;html=1;exitX=0.5;exitY=0;exitDx=0;exitDy=0;entryX=0.5;entryY=1;entryDx=0;entryDy=0;" edge="1" parent="1" source="mDvCeRsgcDXoX6YrQQuD-55" target="mDvCeRsgcDXoX6YrQQuD-56">
          <mxGeometry relative="1" as="geometry" />
        </mxCell>
        <mxCell id="mDvCeRsgcDXoX6YrQQuD-55" value="Ingress" style="rounded=0;whiteSpace=wrap;html=1;" vertex="1" parent="1">
          <mxGeometry x="567.5" y="370" width="120" height="30" as="geometry" />
        </mxCell>
        <mxCell id="mDvCeRsgcDXoX6YrQQuD-58" style="edgeStyle=orthogonalEdgeStyle;rounded=0;orthogonalLoop=1;jettySize=auto;html=1;exitX=0.5;exitY=0;exitDx=0;exitDy=0;entryX=0.5;entryY=1;entryDx=0;entryDy=0;" edge="1" parent="1" source="mDvCeRsgcDXoX6YrQQuD-56" target="mDvCeRsgcDXoX6YrQQuD-33">
          <mxGeometry relative="1" as="geometry" />
        </mxCell>
        <mxCell id="mDvCeRsgcDXoX6YrQQuD-65" style="edgeStyle=orthogonalEdgeStyle;rounded=0;orthogonalLoop=1;jettySize=auto;html=1;entryX=0;entryY=1;entryDx=0;entryDy=0;" edge="1" parent="1" source="mDvCeRsgcDXoX6YrQQuD-56" target="mDvCeRsgcDXoX6YrQQuD-49">
          <mxGeometry relative="1" as="geometry" />
        </mxCell>
        <mxCell id="mDvCeRsgcDXoX6YrQQuD-56" value="Service" style="rounded=0;whiteSpace=wrap;html=1;" vertex="1" parent="1">
          <mxGeometry x="567.5" y="320" width="120" height="30" as="geometry" />
        </mxCell>
        <mxCell id="mDvCeRsgcDXoX6YrQQuD-61" style="edgeStyle=orthogonalEdgeStyle;rounded=0;orthogonalLoop=1;jettySize=auto;html=1;entryX=0;entryY=0.5;entryDx=0;entryDy=0;" edge="1" parent="1" source="mDvCeRsgcDXoX6YrQQuD-60" target="mDvCeRsgcDXoX6YrQQuD-55">
          <mxGeometry relative="1" as="geometry" />
        </mxCell>
        <mxCell id="mDvCeRsgcDXoX6YrQQuD-60" value="&lt;div&gt;Internet&lt;/div&gt;" style="ellipse;whiteSpace=wrap;html=1;" vertex="1" parent="1">
          <mxGeometry x="55" y="420" width="120" height="80" as="geometry" />
        </mxCell>
        <mxCell id="mDvCeRsgcDXoX6YrQQuD-63" value="Http request" style="text;html=1;align=center;verticalAlign=middle;whiteSpace=wrap;rounded=0;" vertex="1" parent="1">
          <mxGeometry x="290" y="430" width="80" height="30" as="geometry" />
        </mxCell>
        <mxCell id="mDvCeRsgcDXoX6YrQQuD-67" value="" style="rounded=0;whiteSpace=wrap;html=1;direction=south;" vertex="1" parent="1">
          <mxGeometry x="722.5" y="150" width="100" height="120" as="geometry" />
        </mxCell>
        <mxCell id="mDvCeRsgcDXoX6YrQQuD-68" value="&lt;font style=&quot;font-size: 10px;&quot;&gt;Pod&lt;/font&gt;" style="text;html=1;align=center;verticalAlign=middle;whiteSpace=wrap;rounded=0;" vertex="1" parent="1">
          <mxGeometry x="743" y="150" width="60" height="30" as="geometry" />
        </mxCell>
        <mxCell id="mDvCeRsgcDXoX6YrQQuD-69" value="&lt;font style=&quot;font-size: 10px;&quot;&gt;Monitoring traffic and recourses&lt;/font&gt;" style="text;html=1;align=center;verticalAlign=middle;whiteSpace=wrap;rounded=0;" vertex="1" parent="1">
          <mxGeometry x="730" y="180" width="90" height="40" as="geometry" />
        </mxCell>
      </root>
    </mxGraphModel>
  </diagram>
</mxfile>
